PathFileType	4	(X/Y/Z)	/home/nbianco/projects/addbio/data/HamnerRunning2013/Processed/subject02//results/MarkerData/run300.trc
DataRate	CameraRate	NumFrames	NumMarkers	Units	OrigDataRate	OrigDataStartFrame	OrigNumFrames
119.99	119.99	8	42	m	119.99	235	269
Frame#	Time	C7			CLAV			LACR			LASI			LCAL			LFAradius			LFAsuperior			LFAulna			LLEL			LMEL			LMT5			LPSI			LTB1			LTB2			LTB3			LTH1			LTH2			LTH3			LTOE			LUA1			LUA2			LUA3			RACR			RASI			RCAL			RFAradius			RFAsuperior			RFAulna			RLEL			RMEL			RMT5			RPSI			RTB1			RTB2			RTB3			RTH1			RTH2			RTH3			RTOE			RUA1			RUA2			RUA3		
		X1	Y1	Z1	X2	Y2	Z2	X3	Y3	Z3	X4	Y4	Z4	X5	Y5	Z5	X6	Y6	Z6	X7	Y7	Z7	X8	Y8	Z8	X9	Y9	Z9	X10	Y10	Z10	X11	Y11	Z11	X12	Y12	Z12	X13	Y13	Z13	X14	Y14	Z14	X15	Y15	Z15	X16	Y16	Z16	X17	Y17	Z17	X18	Y18	Z18	X19	Y19	Z19	X20	Y20	Z20	X21	Y21	Z21	X22	Y22	Z22	X23	Y23	Z23	X24	Y24	Z24	X25	Y25	Z25	X26	Y26	Z26	X27	Y27	Z27	X28	Y28	Z28	X29	Y29	Z29	X30	Y30	Z30	X31	Y31	Z31	X32	Y32	Z32	X33	Y33	Z33	X34	Y34	Z34	X35	Y35	Z35	X36	Y36	Z36	X37	Y37	Z37	X38	Y38	Z38	X39	Y39	Z39	X40	Y40	Z40	X41	Y41	Z41	X42	Y42	Z42

236	3.09167	0.867606	1.54696	-0.351953	0.989687	1.45254	-0.321718	0.934952	1.49588	-0.527561	0.924502	1.05397	-0.463457	0.864045	0.100542	-0.341973	1.00005	1.15724	-0.524438	0.871756	1.1721	-0.660274	1.00022	1.09497	-0.560648	0.781501	1.19517	-0.687719	0.731884	1.18497	-0.61594	1.02548	0.0549502	-0.418737	0.745548	1.0718	-0.361157	1.06816	0.40934	-0.388169	1.02466	0.32576	-0.436446	1.00948	0.217884	-0.362192	0.913172	0.8463	-0.512819	1.01383	0.755961	-0.498272	0.995613	0.628686	-0.470492	1.0995	0.0768076	-0.328546	0.907262	1.41339	-0.606349	0.905834	1.34145	-0.605153	0.809108	1.34422	-0.608709	0.944635	1.52581	-0.185338	0.940069	1.03266	-0.204501	0.431784	0.493199	-0.299877	1.03318	1.17291	-0.173875	0.913238	1.19399	-0.038683	1.0411	1.12745	-0.117621	0.811384	1.2172	-0.00400096	0.766088	1.20669	-0.0758073	0.39278	0.328695	-0.216812	0.750004	1.06267	-0.28048	0.763149	0.43187	-0.290614	0.691614	0.433237	-0.221971	0.628417	0.355271	-0.291039	0.879891	0.853212	-0.165603	0.918312	0.746353	-0.180704	0.843271	0.638304	-0.213297	0.427181	0.259672	-0.300693	0.920025	1.42528	-0.101157	0.907678	1.3353	-0.0991009	0.840054	1.34523	-0.0574548
237	3.1	0.867913	1.54308	-0.353047	0.989353	1.44812	-0.321306	0.93444	1.48915	-0.528264	0.922644	1.05186	-0.463546	0.839532	0.100896	-0.341911	1.00997	1.14532	-0.522429	0.884168	1.15888	-0.661247	1.01201	1.08334	-0.559393	0.794557	1.18153	-0.690402	0.743816	1.16969	-0.619939	1.00046	0.0543862	-0.419221	0.743885	1.06775	-0.358631	1.0561	0.402348	-0.38985	1.00837	0.320283	-0.437114	0.989402	0.213512	-0.36254	0.90851	0.842172	-0.512947	1.00677	0.75031	-0.499652	0.986372	0.622775	-0.469644	1.07473	0.0758525	-0.329284	0.910958	1.40403	-0.607168	0.911518	1.33115	-0.603988	0.815384	1.33186	-0.612829	0.942445	1.5215	-0.185065	0.937507	1.02772	-0.203207	0.449483	0.49508	-0.297027	1.02564	1.15051	-0.168471	0.903447	1.18359	-0.037618	1.0296	1.10785	-0.110042	0.801793	1.21372	-0.00651056	0.75817	1.20384	-0.0790345	0.413309	0.33067	-0.212532	0.747527	1.05795	-0.278604	0.7819	0.431784	-0.289891	0.710952	0.432148	-0.220699	0.647698	0.354156	-0.289613	0.882294	0.849193	-0.16547	0.925771	0.743401	-0.180178	0.854533	0.63393	-0.213627	0.446701	0.261499	-0.296808	0.916098	1.4205	-0.10136	0.901375	1.33008	-0.101124	0.834145	1.34097	-0.0590903
238	3.10833	0.86767	1.53929	-0.354052	0.988933	1.44363	-0.320844	0.934489	1.48296	-0.528622	0.920818	1.05006	-0.463627	0.814718	0.101188	-0.341797	1.02108	1.13458	-0.520095	0.897822	1.14752	-0.660138	1.02445	1.0727	-0.557714	0.808625	1.16905	-0.691868	0.756381	1.15549	-0.623059	0.975255	0.05398	-0.419248	0.742632	1.06508	-0.357208	1.04266	0.39543	-0.391176	0.990713	0.314921	-0.437794	0.968354	0.209518	-0.36277	0.903521	0.838558	-0.513417	0.999304	0.742862	-0.500591	0.975832	0.616473	-0.468502	1.04953	0.0753264	-0.329631	0.913701	1.39633	-0.606734	0.917398	1.32258	-0.602687	0.821925	1.32106	-0.615623	0.940618	1.51767	-0.185082	0.934688	1.02387	-0.202504	0.467403	0.49521	-0.294074	1.01664	1.12873	-0.162801	0.893285	1.17434	-0.0369249	1.01703	1.0897	-0.101814	0.79231	1.21111	-0.00926377	0.750369	1.20198	-0.0825095	0.435024	0.330508	-0.208608	0.745223	1.05446	-0.277554	0.801291	0.431497	-0.289227	0.730909	0.431031	-0.219491	0.667603	0.353008	-0.28825	0.884352	0.845674	-0.165648	0.933736	0.741069	-0.179769	0.866672	0.630215	-0.213171	0.468154	0.261593	-0.293308	0.912097	1.41691	-0.101738	0.895378	1.32615	-0.103208	0.828454	1.33765	-0.061156
239	3.11667	0.867076	1.53582	-0.355114	0.98851	1.43914	-0.320186	0.935335	1.47746	-0.528842	0.918857	1.04861	-0.463659	0.789834	0.101577	-0.341779	1.03345	1.12575	-0.517555	0.912659	1.13892	-0.65687	1.03736	1.06376	-0.555482	0.823319	1.15812	-0.691968	0.769002	1.14292	-0.625195	0.949999	0.0537479	-0.419181	0.74142	1.06364	-0.35675	1.02801	0.389508	-0.391725	0.97257	0.310519	-0.438491	0.946832	0.206554	-0.3631	0.898349	0.836016	-0.514149	0.991796	0.73535	-0.501233	0.965129	0.611004	-0.468044	1.0243	0.0748934	-0.329597	0.915553	1.39	-0.605295	0.923245	1.31585	-0.601467	0.828397	1.31175	-0.616706	0.938992	1.51449	-0.185108	0.932096	1.02107	-0.202575	0.485505	0.493586	-0.291054	1.00615	1.10835	-0.156873	0.882856	1.1668	-0.0363843	1.00344	1.07356	-0.0931077	0.782892	1.20953	-0.0121128	0.742606	1.20127	-0.0860858	0.457656	0.328323	-0.205086	0.743141	1.05203	-0.277273	0.821139	0.431154	-0.288716	0.751323	0.429852	-0.218425	0.687968	0.351793	-0.287028	0.886158	0.842432	-0.16615	0.942169	0.739579	-0.179569	0.879687	0.62696	-0.212034	0.491132	0.260013	-0.290269	0.908044	1.41424	-0.10221	0.889612	1.32341	-0.10499	0.822818	1.3354	-0.0634248
240	3.125	0.866556	1.53299	-0.356265	0.98816	1.43519	-0.319211	0.936959	1.4729	-0.529003	0.916773	1.04742	-0.463652	0.765027	0.102092	-0.341929	1.0467	1.11943	-0.514798	0.927984	1.13322	-0.652189	1.05041	1.05707	-0.552457	0.837917	1.14908	-0.690886	0.781217	1.13238	-0.62632	0.924777	0.0535768	-0.419314	0.73999	1.06315	-0.356841	1.01222	0.384769	-0.391525	0.954297	0.30718	-0.439115	0.925099	0.204515	-0.363564	0.893004	0.834541	-0.51494	0.984138	0.729349	-0.501734	0.954571	0.607002	-0.468654	0.999259	0.074271	-0.329431	0.917172	1.38461	-0.603491	0.928889	1.31074	-0.600294	0.834588	1.30364	-0.61614	0.937341	1.5121	-0.184856	0.930159	1.01919	-0.203247	0.503725	0.490212	-0.288004	0.994188	1.09023	-0.150779	0.872132	1.16131	-0.035687	0.988866	1.05986	-0.0843984	0.77338	1.20921	-0.0148866	0.734734	1.20179	-0.0895964	0.481063	0.324203	-0.20198	0.741531	1.05046	-0.277494	0.84127	0.430912	-0.288405	0.77203	0.428654	-0.217551	0.708638	0.350551	-0.286001	0.887907	0.839595	-0.166816	0.95095	0.739228	-0.179567	0.893355	0.6244	-0.210526	0.515281	0.256828	-0.287772	0.903939	1.41232	-0.102648	0.883934	1.32174	-0.106136	0.817006	1.33433	-0.0656658
241	3.13333	0.866433	1.53103	-0.357371	0.987937	1.43241	-0.317919	0.939157	1.46955	-0.529025	0.914685	1.04636	-0.463668	0.7403	0.102677	-0.342149	1.05997	1.116	-0.511698	0.942561	1.1297	-0.647377	1.06313	1.05306	-0.548447	0.851587	1.14214	-0.689061	0.792792	1.12405	-0.626432	0.899599	0.0533983	-0.419664	0.738339	1.06334	-0.357071	0.995356	0.380871	-0.390965	0.935764	0.304546	-0.439539	0.903155	0.202936	-0.364003	0.887378	0.833715	-0.51559	0.976037	0.725442	-0.502178	0.943837	0.604342	-0.470047	0.974394	0.0734508	-0.329355	0.919517	1.38001	-0.601892	0.934378	1.30692	-0.598902	0.840533	1.29658	-0.614385	0.935508	1.51053	-0.184189	0.928968	1.01813	-0.204157	0.521987	0.485091	-0.28498	0.980828	1.07525	-0.14476	0.860893	1.15797	-0.0346162	0.973346	1.04892	-0.0763269	0.763543	1.21035	-0.0174133	0.726592	1.20358	-0.0928773	0.50517	0.318213	-0.199308	0.74054	1.04967	-0.277879	0.86153	0.430897	-0.28828	0.792878	0.427574	-0.216872	0.729457	0.349425	-0.285171	0.889812	0.837542	-0.167435	0.959848	0.740267	-0.179676	0.907278	0.6231	-0.208974	0.540363	0.252113	-0.28586	0.899726	1.41114	-0.102902	0.878178	1.32106	-0.106489	0.810789	1.33453	-0.0677936
242	3.14167	0.866746	1.52998	-0.35822	0.987875	1.43113	-0.31642	0.941711	1.4676	-0.528764	0.912722	1.04542	-0.463777	0.715585	0.1033	-0.342225	1.07222	1.1157	-0.508107	0.955175	1.12729	-0.64352	1.07508	1.05207	-0.543492	0.863712	1.13729	-0.68692	0.80367	1.11797	-0.625525	0.874426	0.0532354	-0.420025	0.736669	1.06407	-0.357213	0.977543	0.377345	-0.39048	0.916624	0.302226	-0.43968	0.880884	0.201455	-0.364227	0.881357	0.833092	-0.515977	0.96738	0.723144	-0.502553	0.932496	0.602453	-0.471625	0.949559	0.0726292	-0.329432	0.923317	1.37645	-0.600615	0.939939	1.30425	-0.596966	0.846427	1.29086	-0.612066	0.93349	1.50971	-0.183158	0.928201	1.01785	-0.204957	0.540219	0.478232	-0.282065	0.966282	1.06418	-0.139217	0.848841	1.15664	-0.0331894	0.957047	1.04106	-0.0694622	0.753167	1.21311	-0.0195583	0.718022	1.20668	-0.0957794	0.52993	0.310429	-0.197114	0.739968	1.04967	-0.278144	0.881778	0.431189	-0.2883	0.813719	0.426808	-0.216357	0.750263	0.348619	-0.284502	0.891989	0.836666	-0.167868	0.968554	0.742815	-0.179794	0.920984	0.623626	-0.207578	0.566312	0.245975	-0.284539	0.8953	1.41081	-0.102851	0.87217	1.32134	-0.106146	0.804015	1.33609	-0.0698846
243	3.15	0.867315	1.52972	-0.358656	0.987989	1.43122	-0.314831	0.94449	1.46716	-0.528114	0.910973	1.04469	-0.463973	0.690833	0.103996	-0.34201	1.0826	1.11858	-0.503967	0.965303	1.12552	-0.640842	1.08604	1.05434	-0.537919	0.874094	1.13441	-0.684638	0.813831	1.11405	-0.623619	0.849219	0.0531448	-0.420188	0.735219	1.06522	-0.357205	0.958935	0.373915	-0.390293	0.896618	0.300045	-0.439547	0.85823	0.200012	-0.36418	0.874968	0.832487	-0.516073	0.958322	0.721485	-0.502792	0.920356	0.600807	-0.472902	0.924635	0.0719979	-0.329598	0.928661	1.3744	-0.599343	0.945727	1.30282	-0.59433	0.852401	1.28702	-0.609736	0.931425	1.50946	-0.181908	0.927347	1.01835	-0.205437	0.558364	0.469652	-0.279379	0.950934	1.05747	-0.134602	0.835831	1.1572	-0.0316646	0.940251	1.03652	-0.0641378	0.742172	1.21755	-0.0212732	0.70887	1.2112	-0.0981906	0.555336	0.300971	-0.195466	0.739365	1.05046	-0.278113	0.901878	0.43183	-0.288442	0.834409	0.426531	-0.215964	0.770884	0.348324	-0.283951	0.894388	0.837169	-0.168078	0.976758	0.746849	-0.179859	0.934058	0.626223	-0.206385	0.593221	0.238572	-0.283799	0.890572	1.41144	-0.102444	0.865758	1.32262	-0.105386	0.79664	1.33902	-0.0720513
